<svg id="Layer_1" data-name="Layer 1" xmlns="http://www.w3.org/2000/svg" viewBox="0 0 524 190"><title>thinkBIGlogo</title><polygon points="12.4 115.5 507.3 115.5 507.3 175.5 12.4 175.5 12.4 115.5" style="fill:#009ac8"/><path d="M52.3,99.2a67.32,67.32,0,0,1-7.8,2.8,33.25,33.25,0,0,1-9.6,1.4,24.46,24.46,0,0,1-6.2-.8,13.29,13.29,0,0,1-5-2.6,13.89,13.89,0,0,1-3.4-4.7,16.51,16.51,0,0,1-1.3-7V53.1H11v-12h8V21.2H34.7V41.1h13v12h-13V83c0,2.2.6,3.7,1.8,4.7A6.77,6.77,0,0,0,40.7,89a16.09,16.09,0,0,0,4.8-.8,33.28,33.28,0,0,0,3.7-1.4l3.1,12.4h0Z" style="fill:#7bc143"/><path d="M117.1,102.4H101.4V68c0-4.8-.9-8.4-2.7-10.6a9.09,9.09,0,0,0-7.6-3.5,11.93,11.93,0,0,0-4.4.9,14.53,14.53,0,0,0-4.4,2.7,21.21,21.21,0,0,0-3.9,4,17.58,17.58,0,0,0-2.6,5.1v35.8H60.1V17H75.8V52.4a23.41,23.41,0,0,1,9.1-9.1A25.8,25.8,0,0,1,97.8,40a19.65,19.65,0,0,1,9.7,2.1,14.41,14.41,0,0,1,5.8,5.4,21.6,21.6,0,0,1,2.9,7.7,51.68,51.68,0,0,1,.8,8.9v38.3h0.1Z" style="fill:#009ac8"/><path d="M130.5,102.4V41.1h15.7v61.3H130.5Zm0-69.8V17h15.7V32.6H130.5Z" style="fill:#7bc143"/><path d="M215.9,102.4H200.2V68c0-4.9-.9-8.5-2.6-10.8a8.33,8.33,0,0,0-7.1-3.4,13.59,13.59,0,0,0-4.8.9,17.27,17.27,0,0,0-4.7,2.7,21.21,21.21,0,0,0-3.9,4,17.58,17.58,0,0,0-2.6,5.1v35.8H159V41h14.2V52.3a23.35,23.35,0,0,1,9.8-9.1,31.27,31.27,0,0,1,14.5-3.3,19,19,0,0,1,9.4,2.1,14.8,14.8,0,0,1,5.6,5.5,23.44,23.44,0,0,1,2.7,7.7A51.43,51.43,0,0,1,216,64v38.4h-0.1Z" style="fill:#7bc143"/><polygon points="271.3 102.4 253.5 75.8 245.1 84.1 245.1 102.4 229.4 102.4 229.4 17 245.1 17 245.1 68.8 269.6 41.2 286.4 41.2 263.4 67.2 288 102.4 271.3 102.4" style="fill:#7bc143"/><path d="M363.1,81a19.22,19.22,0,0,1-2.1,9.2,19.71,19.71,0,0,1-5.8,6.7,25.83,25.83,0,0,1-8.5,4.1,37.7,37.7,0,0,1-10.3,1.4H296.3V19.3h44.5a15.54,15.54,0,0,1,7.8,1.9,20.21,20.21,0,0,1,6,4.9,19.44,19.44,0,0,1,3.7,6.8,22.21,22.21,0,0,1,1.4,7.6,23.23,23.23,0,0,1-3,11.5,18.4,18.4,0,0,1-8.9,7.8A20.38,20.38,0,0,1,359,67.4c2.7,3.6,4.1,8.1,4.1,13.6h0Zm-16.3-3.1a11.62,11.62,0,0,0-.8-4.2,10.49,10.49,0,0,0-2-3.6,9.28,9.28,0,0,0-3-2.3,8.6,8.6,0,0,0-3.9-.9H312.3V88.8h24a11.09,11.09,0,0,0,4.1-.8,10,10,0,0,0,3.4-2.2,11.52,11.52,0,0,0,2.2-3.5,11.4,11.4,0,0,0,.8-4.4h0ZM312.3,33.1V54h21.5a9.35,9.35,0,0,0,6.9-2.8c2-1.9,2.9-4.4,2.9-7.7a10.54,10.54,0,0,0-2.7-7.6,8.28,8.28,0,0,0-6.4-2.8H312.3Z" style="fill:#009ac8"/><polygon points="374.5 102.4 374.5 19.5 390.7 19.5 390.7 102.4 374.5 102.4" style="fill:#009ac8"/><path d="M463.7,93c-6.4,6.6-13.8,9.9-22.1,9.9a33.73,33.73,0,0,1-15-3.5A40.32,40.32,0,0,1,414.3,90a47.08,47.08,0,0,1-8.2-13.7,43.6,43.6,0,0,1-2.9-16,44.55,44.55,0,0,1,2.9-16,40.58,40.58,0,0,1,8.3-13.2,41.1,41.1,0,0,1,12.5-9,36,36,0,0,1,15.7-3.4c7.6,0,14,1.6,19.4,4.9a32.29,32.29,0,0,1,12.2,13.2l-12,8.9a22.27,22.27,0,0,0-8.4-9.5,21.54,21.54,0,0,0-11.7-3.3,19.74,19.74,0,0,0-9.4,2.2,21.46,21.46,0,0,0-7,6.1,31.22,31.22,0,0,0-4.6,8.9,34,34,0,0,0-1.6,10.6,33,33,0,0,0,1.8,11,27.83,27.83,0,0,0,4.9,8.8,25.07,25.07,0,0,0,7.4,6,21.36,21.36,0,0,0,9.5,2.1c7.6,0,14.5-3.8,20.7-11.3V71.5H447V59.7h30.1v42.7H463.8V93h-0.1Z" style="fill:#009ac8"/><path d="M490.2,71.2V18.6h15.7V71.2H490.2Zm0,31.2V84.7h15.7v17.7H490.2Z" style="fill:#009ac8"/><polygon points="34.7 155.3 31.9 155.3 23.8 135.5 26.6 135.5 32.1 149.4 33.3 152.9 34.5 149.4 39.9 135.5 42.7 135.5 34.7 155.3" style="fill:#fff"/><path d="M44.7,148.2a6.56,6.56,0,0,0,1.1,4,3.88,3.88,0,0,0,3.2,1.4,4,4,0,0,0,2.6-.7,3.33,3.33,0,0,0,1.4-1.7l2.2,0.6c-0.9,2.4-3,3.6-6.2,3.6a6.7,6.7,0,0,1-5.2-2q-1.8-1.95-1.8-6a8.57,8.57,0,0,1,1.8-5.8,6.62,6.62,0,0,1,5.1-2c4.5,0,6.7,2.7,6.7,8.1V148H44.7v0.2Zm8.3-1.9a5.38,5.38,0,0,0-1.2-3.5,3.84,3.84,0,0,0-2.9-1.1,3.7,3.7,0,0,0-2.9,1.2,5.53,5.53,0,0,0-1.2,3.4H53Z" style="fill:#fff"/><path d="M62.4,155.6a4.4,4.4,0,0,1-3.4-1.2,4.46,4.46,0,0,1-1.2-3.3,4.33,4.33,0,0,1,1.5-3.6,8.77,8.77,0,0,1,5-1.4l3.4-.1v-0.8a4.14,4.14,0,0,0-.8-2.7,3.56,3.56,0,0,0-2.5-.8,4.18,4.18,0,0,0-2.5.6,2.61,2.61,0,0,0-.9,1.8l-2.6-.2c0.4-2.7,2.5-4.1,6.1-4.1a6,6,0,0,1,4.3,1.3,4.7,4.7,0,0,1,1.4,3.8v6.6a3.69,3.69,0,0,0,.3,1.7,1.15,1.15,0,0,0,1.1.6,2.49,2.49,0,0,0,.8-0.1v1.6a6.48,6.48,0,0,1-2,.2,2.82,2.82,0,0,1-2.1-.7,3.7,3.7,0,0,1-.7-2.3H67.5a5.64,5.64,0,0,1-2.3,2.5,5.81,5.81,0,0,1-2.8.6h0Zm0.6-1.9a5.14,5.14,0,0,0,2.5-.6,4.56,4.56,0,0,0,2.3-4v-1.3l-2.8.1a6.38,6.38,0,0,0-2.7.4,3,3,0,0,0-1.4,1,3.45,3.45,0,0,0-.5,1.8,2.35,2.35,0,0,0,.7,1.9,2.74,2.74,0,0,0,1.9.7h0Z" style="fill:#fff"/><polygon points="74.3 155.3 74.3 134.4 76.8 134.4 76.8 155.3 74.3 155.3" style="fill:#fff"/><path d="M82.3,148.2a6.56,6.56,0,0,0,1.1,4,3.88,3.88,0,0,0,3.2,1.4,4,4,0,0,0,2.6-.7,3.33,3.33,0,0,0,1.4-1.7l2.2,0.6c-0.9,2.4-3,3.6-6.2,3.6a6.7,6.7,0,0,1-5.2-2q-1.8-1.95-1.8-6a8.57,8.57,0,0,1,1.8-5.8,6.62,6.62,0,0,1,5.1-2c4.5,0,6.7,2.7,6.7,8.1V148H82.3v0.2Zm8.3-1.9a5.38,5.38,0,0,0-1.2-3.5,3.84,3.84,0,0,0-2.9-1.1,3.7,3.7,0,0,0-2.9,1.2,5.53,5.53,0,0,0-1.2,3.4h8.2Z" style="fill:#fff"/><polygon points="104.6 155.3 104.6 135.5 107.3 135.5 107.3 155.3 104.6 155.3" style="fill:#fff"/><path d="M120.7,155.3v-9.7a6.71,6.71,0,0,0-.3-2.3,1.93,1.93,0,0,0-.9-1.2,4.49,4.49,0,0,0-1.9-.4,3.47,3.47,0,0,0-2.9,1.3,5.23,5.23,0,0,0-1.1,3.5v8.8h-2.5v-12a23,23,0,0,0-.1-3.3h2.4v1.1a9.89,9.89,0,0,0,.1,1.5h0a5.44,5.44,0,0,1,2-2.2,6.2,6.2,0,0,1,2.9-.7,4.64,4.64,0,0,1,3.7,1.3c0.8,0.8,1.2,2.2,1.2,4.1v10.1h-2.6v0.1Z" style="fill:#fff"/><path d="M136.7,155.3v-9.7a6.71,6.71,0,0,0-.3-2.3,1.93,1.93,0,0,0-.9-1.2,4.49,4.49,0,0,0-1.9-.4,3.47,3.47,0,0,0-2.9,1.3,5.23,5.23,0,0,0-1.1,3.5v8.8h-2.5v-12a23,23,0,0,0-.1-3.3h2.4v1.1a9.89,9.89,0,0,0,.1,1.5h0a5.44,5.44,0,0,1,2-2.2,6.2,6.2,0,0,1,2.9-.7,4.64,4.64,0,0,1,3.7,1.3c0.8,0.8,1.2,2.2,1.2,4.1v10.1h-2.6v0.1Z" style="fill:#fff"/><path d="M155.7,147.7c0,2.7-.6,4.6-1.8,6a6.62,6.62,0,0,1-5.1,2,6.26,6.26,0,0,1-5-2,9.21,9.21,0,0,1-1.7-5.9c0-5.3,2.3-7.9,6.8-7.9,2.3,0,4,.6,5.1,1.9s1.7,3.2,1.7,5.9h0Zm-2.7,0a9.09,9.09,0,0,0-.9-4.6,3.33,3.33,0,0,0-3.1-1.4,3.46,3.46,0,0,0-3.2,1.5,10.62,10.62,0,0,0,0,9,3.5,3.5,0,0,0,3.1,1.5,3.75,3.75,0,0,0,3.3-1.5,10,10,0,0,0,.8-4.5h0Z" style="fill:#fff"/><path d="M165.2,155.3h-3l-5.5-15.2h2.7l3.3,9.9c0.1,0.4.4,1.5,1,3.3l0.5-1.6,0.5-1.7,3.5-9.9h2.7l-5.7,15.2h0Z" style="fill:#fff"/><path d="M176.5,155.6a4.4,4.4,0,0,1-3.4-1.2,4.46,4.46,0,0,1-1.2-3.3,4.33,4.33,0,0,1,1.5-3.6,8.77,8.77,0,0,1,5-1.4l3.4-.1v-0.8a4.14,4.14,0,0,0-.8-2.7,3.56,3.56,0,0,0-2.5-.8,4.18,4.18,0,0,0-2.5.6,2.61,2.61,0,0,0-.9,1.8l-2.6-.2c0.4-2.7,2.5-4.1,6.1-4.1a6,6,0,0,1,4.3,1.3,4.7,4.7,0,0,1,1.4,3.8v6.6a3.69,3.69,0,0,0,.3,1.7,1.15,1.15,0,0,0,1.1.6,2.49,2.49,0,0,0,.8-0.1v1.6a6.48,6.48,0,0,1-2,.2,2.82,2.82,0,0,1-2.1-.7,3.7,3.7,0,0,1-.7-2.3h-0.1a5.64,5.64,0,0,1-2.3,2.5,5.81,5.81,0,0,1-2.8.6h0Zm0.6-1.9a5.14,5.14,0,0,0,2.5-.6,4.56,4.56,0,0,0,2.3-4v-1.3l-2.8.1a6.38,6.38,0,0,0-2.7.4,3,3,0,0,0-1.4,1,3.45,3.45,0,0,0-.5,1.8,2.35,2.35,0,0,0,.7,1.9,2.94,2.94,0,0,0,1.9.7h0Z" style="fill:#fff"/><path d="M195.1,155.2a10.9,10.9,0,0,1-2.6.3c-2,0-3-1.1-3-3.4V141.9h-1.8v-1.8h1.9l0.7-3.4H192v3.4h2.8v1.8H192v9.6a2.08,2.08,0,0,0,.4,1.5,1.56,1.56,0,0,0,1.3.4c0.3,0,.8-0.1,1.5-0.2v2h-0.1Z" style="fill:#fff"/><path d="M197.3,136.8v-2.4h2.5v2.4h-2.5Zm0,18.5V140.1h2.5v15.2h-2.5Z" style="fill:#fff"/><path d="M216.3,147.7c0,2.7-.6,4.6-1.8,6a6.62,6.62,0,0,1-5.1,2,6.26,6.26,0,0,1-5-2,9.21,9.21,0,0,1-1.7-5.9c0-5.3,2.3-7.9,6.8-7.9,2.3,0,4,.6,5.1,1.9s1.7,3.2,1.7,5.9h0Zm-2.7,0a9.09,9.09,0,0,0-.9-4.6,3.33,3.33,0,0,0-3.1-1.4,3.46,3.46,0,0,0-3.2,1.5,10.62,10.62,0,0,0,0,9,3.5,3.5,0,0,0,3.1,1.5,3.75,3.75,0,0,0,3.3-1.5,10,10,0,0,0,.8-4.5h0Z" style="fill:#fff"/><path d="M228.8,155.3v-9.7a6.71,6.71,0,0,0-.3-2.3,1.93,1.93,0,0,0-.9-1.2,4.49,4.49,0,0,0-1.9-.4,3.47,3.47,0,0,0-2.9,1.3,5.23,5.23,0,0,0-1.1,3.5v8.8h-2.5v-12a23,23,0,0,0-.1-3.3h2.4v1.1a9.89,9.89,0,0,0,.1,1.5h0a5.44,5.44,0,0,1,2-2.2,6.2,6.2,0,0,1,2.9-.7,4.64,4.64,0,0,1,3.7,1.3c0.8,0.8,1.2,2.2,1.2,4.1v10.1h-2.6v0.1Z" style="fill:#fff"/><path d="M251.8,137.4a6.35,6.35,0,0,0-5.1,2.1,8.57,8.57,0,0,0-1.8,5.8,8.72,8.72,0,0,0,1.9,5.9,6.45,6.45,0,0,0,5.2,2.2,6.79,6.79,0,0,0,6.3-4.1l2.2,1.1a9.3,9.3,0,0,1-3.4,3.9,9.69,9.69,0,0,1-5.1,1.3,10.79,10.79,0,0,1-5.2-1.2,7.25,7.25,0,0,1-3.3-3.6,11.76,11.76,0,0,1-1.1-5.5,10.26,10.26,0,0,1,2.6-7.4,9.34,9.34,0,0,1,7.1-2.7,10.66,10.66,0,0,1,5.3,1.2,7.1,7.1,0,0,1,3.1,3.7l-2.5.8a5.17,5.17,0,0,0-2.2-2.6,9.68,9.68,0,0,0-4-.9h0Z" style="fill:#fff"/><path d="M265.6,142.7a5.37,5.37,0,0,1,2-2.2,5.2,5.2,0,0,1,2.9-.7,4.59,4.59,0,0,1,3.6,1.2c0.8,0.8,1.2,2.2,1.2,4.1v10.1h-2.5v-9.7a7,7,0,0,0-.3-2.4,2.34,2.34,0,0,0-1-1.2,4.88,4.88,0,0,0-1.9-.4,3.85,3.85,0,0,0-2.9,1.2,4.86,4.86,0,0,0-1.1,3.3v9h-2.5V134.1h2.5v5.4a10.87,10.87,0,0,1-.1,1.8,12.54,12.54,0,0,1,.1,1.4h0Z" style="fill:#fff"/><path d="M282.8,155.6a4.4,4.4,0,0,1-3.4-1.2,4.46,4.46,0,0,1-1.2-3.3,4.33,4.33,0,0,1,1.5-3.6,8.77,8.77,0,0,1,5-1.4l3.4-.1v-0.8a4.14,4.14,0,0,0-.8-2.7,3.56,3.56,0,0,0-2.5-.8,4.18,4.18,0,0,0-2.5.6,2.61,2.61,0,0,0-.9,1.8l-2.6-.2c0.4-2.7,2.5-4.1,6.1-4.1a6,6,0,0,1,4.3,1.3,4.7,4.7,0,0,1,1.4,3.8v6.6a3.69,3.69,0,0,0,.3,1.7,1.15,1.15,0,0,0,1.1.6,2.49,2.49,0,0,0,.8-0.1v1.6a6.48,6.48,0,0,1-2,.2,2.82,2.82,0,0,1-2.1-.7,3.7,3.7,0,0,1-.7-2.3h-0.1a5.64,5.64,0,0,1-2.3,2.5,6.48,6.48,0,0,1-2.8.6h0Zm0.5-1.9a5.14,5.14,0,0,0,2.5-.6,4.56,4.56,0,0,0,2.3-4v-1.3l-2.8.1a6.38,6.38,0,0,0-2.7.4,3,3,0,0,0-1.4,1,3.45,3.45,0,0,0-.5,1.8,2.35,2.35,0,0,0,.7,1.9,2.94,2.94,0,0,0,1.9.7h0Z" style="fill:#fff"/><polygon points="294.6 155.3 294.6 134.4 297.1 134.4 297.1 155.3 294.6 155.3" style="fill:#fff"/><polygon points="301.3 155.3 301.3 134.4 303.8 134.4 303.8 155.3 301.3 155.3" style="fill:#fff"/><path d="M309.4,148.2a6.56,6.56,0,0,0,1.1,4,3.88,3.88,0,0,0,3.2,1.4,4,4,0,0,0,2.6-.7,3.33,3.33,0,0,0,1.4-1.7l2.2,0.6c-0.9,2.4-3,3.6-6.2,3.6a6.7,6.7,0,0,1-5.2-2q-1.8-1.95-1.8-6a8.57,8.57,0,0,1,1.8-5.8,6.62,6.62,0,0,1,5.1-2c4.5,0,6.7,2.7,6.7,8.1V148H309.4v0.2Zm8.2-1.9a5.38,5.38,0,0,0-1.2-3.5,3.84,3.84,0,0,0-2.9-1.1,3.7,3.7,0,0,0-2.9,1.2,5.53,5.53,0,0,0-1.2,3.4h8.2Z" style="fill:#fff"/><path d="M332.8,155.3v-9.7a6.71,6.71,0,0,0-.3-2.3,1.93,1.93,0,0,0-.9-1.2,4.49,4.49,0,0,0-1.9-.4,3.47,3.47,0,0,0-2.9,1.3,5.23,5.23,0,0,0-1.1,3.5v8.8h-2.5v-12a23,23,0,0,0-.1-3.3h2.4v1.1a9.89,9.89,0,0,0,.1,1.5h0a5.44,5.44,0,0,1,2-2.2,6.2,6.2,0,0,1,2.9-.7,4.64,4.64,0,0,1,3.7,1.3c0.8,0.8,1.2,2.2,1.2,4.1v10.1h-2.6v0.1Z" style="fill:#fff"/><path d="M344.7,161.3a6.78,6.78,0,0,1-4-1,4.34,4.34,0,0,1-1.9-2.8l2.5-.4a2.61,2.61,0,0,0,1.1,1.6,3.92,3.92,0,0,0,2.3.6c2.5,0,3.8-1.5,3.8-4.4v-2.4h0a4.78,4.78,0,0,1-2,2.2,5.43,5.43,0,0,1-2.9.7,4.54,4.54,0,0,1-4.1-1.9c-0.9-1.2-1.3-3.2-1.3-5.8a10.61,10.61,0,0,1,1.4-6,4.91,4.91,0,0,1,4.3-1.9,5.07,5.07,0,0,1,2.8.7,4.63,4.63,0,0,1,1.8,2.1h0a9.89,9.89,0,0,1,.1-1.5,5,5,0,0,1,.1-1.1h2.4a23.8,23.8,0,0,0-.1,3.2v11.6c0.1,4.3-2.1,6.5-6.3,6.5h0Zm3.8-13.6a10.23,10.23,0,0,0-.5-3.2,4.58,4.58,0,0,0-1.4-2.1,3.5,3.5,0,0,0-4.9.7,8.84,8.84,0,0,0-.9,4.6,9.74,9.74,0,0,0,.8,4.5,3.5,3.5,0,0,0,4.9.7,4.26,4.26,0,0,0,1.4-2,6.78,6.78,0,0,0,.6-3.2h0Z" style="fill:#fff"/><path d="M356.6,148.2a6.56,6.56,0,0,0,1.1,4,3.88,3.88,0,0,0,3.2,1.4,4,4,0,0,0,2.6-.7,3.33,3.33,0,0,0,1.4-1.7l2.2,0.6c-0.9,2.4-3,3.6-6.2,3.6a6.7,6.7,0,0,1-5.2-2q-1.8-1.95-1.8-6a8.57,8.57,0,0,1,1.8-5.8,6.62,6.62,0,0,1,5.1-2c4.5,0,6.7,2.7,6.7,8.1V148H356.6v0.2Zm8.2-1.9a5.38,5.38,0,0,0-1.2-3.5,3.84,3.84,0,0,0-2.9-1.1,3.7,3.7,0,0,0-2.9,1.2,5.53,5.53,0,0,0-1.2,3.4h8.2Z" style="fill:#fff"/><path d="M392.4,155.5a5.45,5.45,0,0,1-4.2-1.8,7.22,7.22,0,0,1-2.4,1.4,8.68,8.68,0,0,1-2.8.5,7.31,7.31,0,0,1-4.7-1.4,5.2,5.2,0,0,1-1.7-4.1q0-3.9,4.8-6a10.23,10.23,0,0,1-.8-2.1,8.92,8.92,0,0,1-.3-2.2,4.16,4.16,0,0,1,1.3-3.3,5.31,5.31,0,0,1,3.7-1.2,5.14,5.14,0,0,1,3.4,1.1,3.47,3.47,0,0,1,1.3,2.9,4.1,4.1,0,0,1-1.3,3,13.61,13.61,0,0,1-4.5,2.6,29.47,29.47,0,0,0,4.1,5.8,16.09,16.09,0,0,0,2.4-5.8l2,0.6a21.75,21.75,0,0,1-3,6.6,4.19,4.19,0,0,0,2.9,1.4,6.27,6.27,0,0,0,1.6-.2v1.9a3.89,3.89,0,0,1-1.8.3h0Zm-4.6-16.2a1.86,1.86,0,0,0-.7-1.6,2.88,2.88,0,0,0-1.9-.6,2.82,2.82,0,0,0-2.1.7,2.58,2.58,0,0,0-.7,2,7.52,7.52,0,0,0,.9,3.4,17.25,17.25,0,0,0,2.7-1.3,5.12,5.12,0,0,0,1.3-1.2,1.87,1.87,0,0,0,.5-1.4h0Zm-1,12.9a34.2,34.2,0,0,1-4.5-6.4c-2.2.9-3.3,2.4-3.3,4.2a3.69,3.69,0,0,0,1.1,2.7,4,4,0,0,0,3,1,4.77,4.77,0,0,0,2-.4,4.52,4.52,0,0,0,1.7-1.1h0Z" style="fill:#fff"/><path d="M418.1,149.8a5,5,0,0,1-2.2,4.3,10.23,10.23,0,0,1-6,1.5c-4.8,0-7.6-1.7-8.4-5l2.6-.5a3.71,3.71,0,0,0,1.9,2.6,7.7,7.7,0,0,0,4,.8,7.41,7.41,0,0,0,4-.9,3,3,0,0,0,1.4-2.6,2.77,2.77,0,0,0-.5-1.6,4,4,0,0,0-1.2-1,8.39,8.39,0,0,0-1.9-.7c-0.7-.2-1.6-0.4-2.5-0.6a21.25,21.25,0,0,1-3.6-1,5.16,5.16,0,0,1-1.9-1.2,4.18,4.18,0,0,1-1.1-1.5,5.92,5.92,0,0,1-.4-2,4.41,4.41,0,0,1,1.9-3.9,9.84,9.84,0,0,1,5.6-1.4,10.43,10.43,0,0,1,5.2,1,5.83,5.83,0,0,1,2.5,3.5l-2.6.5a3.4,3.4,0,0,0-1.7-2.3,6.39,6.39,0,0,0-3.4-.7,6.85,6.85,0,0,0-3.6.8,2.69,2.69,0,0,0-1.3,2.4,2.46,2.46,0,0,0,.5,1.5,3.88,3.88,0,0,0,1.4,1,19.58,19.58,0,0,0,3.6,1c0.6,0.1,1.2.3,1.8,0.4a8.44,8.44,0,0,1,1.7.5,5.23,5.23,0,0,1,1.5.7,6.42,6.42,0,0,1,1.3,1,3.92,3.92,0,0,1,.8,1.4,3.12,3.12,0,0,1,.6,2h0Z" style="fill:#fff"/><path d="M423.6,140.1v9.7a6.71,6.71,0,0,0,.3,2.3,1.93,1.93,0,0,0,.9,1.2,4.49,4.49,0,0,0,1.9.4,3.47,3.47,0,0,0,2.9-1.3,5.23,5.23,0,0,0,1.1-3.5v-8.8h2.5v12a23,23,0,0,0,.1,3.3h-2.4v-2.6h0a5.44,5.44,0,0,1-2,2.2,6.09,6.09,0,0,1-2.8.6,5,5,0,0,1-3.7-1.2c-0.8-.8-1.2-2.2-1.2-4.1V140.2h2.4v-0.1Z" style="fill:#fff"/><path d="M445.7,155.3v-9.7a5.79,5.79,0,0,0-.6-3.1,2.38,2.38,0,0,0-2.2-.8,3.22,3.22,0,0,0-2.6,1.2,5.84,5.84,0,0,0-.9,3.5v8.8h-2.5v-12a23,23,0,0,0-.1-3.3h2.4V141a9.89,9.89,0,0,0,.1,1.5h0a5.59,5.59,0,0,1,1.9-2.3,5.26,5.26,0,0,1,2.6-.6,4.15,4.15,0,0,1,2.7.7,3.84,3.84,0,0,1,1.4,2.2h0a5.25,5.25,0,0,1,1.9-2.2,5,5,0,0,1,2.7-.7,4.11,4.11,0,0,1,3.4,1.3A6.29,6.29,0,0,1,457,145v10.1h-2.5v-9.7a5.79,5.79,0,0,0-.6-3.1,2.38,2.38,0,0,0-2.2-.8,3.09,3.09,0,0,0-2.6,1.2,5.84,5.84,0,0,0-.9,3.5V155h-2.5v0.3Z" style="fill:#fff"/><path d="M469.5,155.3v-9.7a5.79,5.79,0,0,0-.6-3.1,2.38,2.38,0,0,0-2.2-.8,3.22,3.22,0,0,0-2.6,1.2,5.84,5.84,0,0,0-.9,3.5v8.8h-2.5v-12a23,23,0,0,0-.1-3.3H463V141a9.89,9.89,0,0,0,.1,1.5h0a5.59,5.59,0,0,1,1.9-2.3,5.26,5.26,0,0,1,2.6-.6,4.15,4.15,0,0,1,2.7.7,3.84,3.84,0,0,1,1.4,2.2h0a5.25,5.25,0,0,1,1.9-2.2,5,5,0,0,1,2.7-.7,4.11,4.11,0,0,1,3.4,1.3,6.29,6.29,0,0,1,1.1,4.1v10.1h-2.5v-9.7a5.79,5.79,0,0,0-.6-3.1,2.38,2.38,0,0,0-2.2-.8,3.09,3.09,0,0,0-2.6,1.2,5.84,5.84,0,0,0-.9,3.5V155h-2.5v0.3Z" style="fill:#fff"/><path d="M484.3,136.8v-2.4h2.5v2.4h-2.5Zm0,18.5V140.1h2.5v15.2h-2.5Z" style="fill:#fff"/><path d="M496.3,155.2a10.9,10.9,0,0,1-2.6.3c-2,0-3-1.1-3-3.4V141.9h-1.8v-1.8h1.9l0.7-3.4h1.7v3.4H496v1.8h-2.8v9.6a2.08,2.08,0,0,0,.4,1.5,1.56,1.56,0,0,0,1.3.4c0.3,0,.8-0.1,1.5-0.2v2h-0.1Z" style="fill:#fff"/></svg>